<?xml version="1.0" encoding="iso-8859-1"?>
<!-- Generator: Adobe Illustrator 19.0.0, SVG Export Plug-In . SVG Version: 6.00 Build 0)  -->
<svg version="1.1" id="Capa_1" xmlns="http://www.w3.org/2000/svg" xmlns:xlink="http://www.w3.org/1999/xlink" x="0px" y="0px"
	 viewBox="0 0 512 512" style="enable-background:new 0 0 512 512;" xml:space="preserve">
<g>
	<path style="fill:#87CED9;" d="M256.771,512c-62.208,0-110.933-112.452-110.933-256S194.563,0,256.771,0
		s110.933,112.452,110.933,256S318.979,512,256.771,512z M256.771,17.067c-50.876,0-93.867,109.414-93.867,238.933
		s42.991,238.933,93.867,238.933S350.638,385.519,350.638,256S307.647,17.067,256.771,17.067z"/>
	<path style="fill:#87CED9;" d="M112.763,416.717c-37.06,0-64.964-10.667-77.653-32.717
		C3.971,330.138,76.991,231.706,201.305,159.923l0,0C325.635,88.149,447.381,74.129,478.476,128s-41.924,152.294-166.238,224.077
		C238.8,394.479,166.25,416.717,112.763,416.717z M209.838,174.711C97.676,239.462,24.409,331.409,49.847,375.467
		s141.696,26.581,253.858-38.178s185.429-156.698,159.991-200.755C438.258,92.476,322.043,109.952,209.838,174.711z"/>
	<path style="fill:#87CED9;" d="M400.78,416.717c-53.487,0-126.029-22.238-199.475-64.64l0,0
		C76.991,280.294,3.971,181.862,35.067,128s152.849-39.834,277.171,31.923S509.571,330.138,478.476,384
		C465.744,406.042,437.832,416.717,400.78,416.717z M209.838,337.289c112.162,64.768,228.42,82.253,253.858,38.178
		c25.438-44.075-47.829-136.004-159.991-200.755S75.285,92.467,49.847,136.533S97.676,272.538,209.838,337.289z"/>
</g>
<circle style="fill:#DE4C3C;" cx="256.771" cy="256" r="51.2"/>
<g>
	<circle style="fill:#4398D1;" cx="316.505" cy="51.2" r="25.6"/>
	<circle style="fill:#4398D1;" cx="51.971" cy="307.2" r="25.6"/>
	<circle style="fill:#4398D1;" cx="410.371" cy="409.6" r="25.6"/>
</g>
<g>
</g>
<g>
</g>
<g>
</g>
<g>
</g>
<g>
</g>
<g>
</g>
<g>
</g>
<g>
</g>
<g>
</g>
<g>
</g>
<g>
</g>
<g>
</g>
<g>
</g>
<g>
</g>
<g>
</g>
</svg>
